<svg width="24" height="24" viewBox="0 0 24 24" fill="none" xmlns="http://www.w3.org/2000/svg">
<path d="M20.5816 11.3457L4.74585 2.4777C4.61262 2.4031 4.4598 2.37093 4.30781 2.3855C4.15582 2.40008 4.0119 2.4607 3.89528 2.55926C3.77866 2.65781 3.6949 2.78962 3.65519 2.93706C3.61549 3.08449 3.62173 3.24054 3.67309 3.38433L6.66006 11.7479C6.71832 11.911 6.71832 12.0892 6.66006 12.2524L3.67309 20.6159C3.62173 20.7597 3.61549 20.9157 3.65519 21.0632C3.6949 21.2106 3.77866 21.3424 3.89528 21.441C4.0119 21.5395 4.15582 21.6001 4.30781 21.6147C4.45981 21.6293 4.61263 21.5971 4.74585 21.5225L20.5816 12.6545C20.6979 12.5894 20.7948 12.4944 20.8622 12.3794C20.9296 12.2643 20.9652 12.1334 20.9652 12.0001C20.9652 11.8668 20.9296 11.7359 20.8622 11.6209C20.7948 11.5058 20.6979 11.4109 20.5816 11.3457V11.3457Z" stroke="#727272" stroke-width="2" stroke-linecap="round" stroke-linejoin="round"/>
<path d="M6.75 12H12.75" stroke="#727272" stroke-width="2" stroke-linecap="round" stroke-linejoin="round"/>
</svg>
